<svg width="32" height="32" viewBox="0 0 64 64" fill="none" xmlns="http://www.w3.org/2000/svg">
  <!-- Outer gradient border/outline -->
  <defs>
    <linearGradient id="outerGradient" x1="0%" y1="0%" x2="100%" y2="0%">
      <stop offset="0%" style="stop-color:#3B82F6;stop-opacity:1" />
      <stop offset="100%" style="stop-color:#10B981;stop-opacity:1" />
    </linearGradient>
    <linearGradient id="goldGradient" x1="0%" y1="0%" x2="100%" y2="0%">
      <stop offset="0%" style="stop-color:#F59E0B;stop-opacity:1" />
      <stop offset="100%" style="stop-color:#D97706;stop-opacity:1" />
    </linearGradient>
  </defs>
  
  <!-- Main teardrop shape with gradient border -->
  <path d="M32 8 C20 8 8 20 8 32 C8 44 20 56 32 56 C44 56 56 44 56 32 C56 20 44 8 32 8 Z" 
        fill="url(#outerGradient)" 
        stroke="none"/>
  
  <!-- Inner dark blue circle -->
  <circle cx="32" cy="32" r="24" fill="#1E3A8A"/>
  
  <!-- Bar chart bars -->
  <!-- Left bar (shortest) -->
  <rect x="22" y="28" width="4" height="8" fill="#10B981" rx="2"/>
  <!-- Middle bar -->
  <rect x="30" y="24" width="4" height="12" fill="#10B981" rx="2"/>
  <!-- Right bar (tallest) -->
  <rect x="38" y="20" width="4" height="16" fill="#10B981" rx="2"/>
  
  <!-- Upward arrows on top of bars -->
  <!-- Left arrow -->
  <path d="M24 26 L26 24 L28 26 L26 28 Z" fill="url(#goldGradient)"/>
  <!-- Middle arrow -->
  <path d="M32 22 L34 20 L36 22 L34 24 Z" fill="url(#goldGradient)"/>
  <!-- Right arrow -->
  <path d="M40 18 L42 16 L44 18 L42 20 Z" fill="url(#goldGradient)"/>
  
  <!-- Golden bottom band -->
  <path d="M16 48 Q32 52 48 48" 
        stroke="url(#goldGradient)" 
        stroke-width="3" 
        fill="none" 
        stroke-linecap="round"/>
</svg>
